<svg width="510" height="145" viewBox="0 0 510 145" fill="none" xmlns="http://www.w3.org/2000/svg">
            <path
                d="M57.958 0C57.958 0 29.0005 29 0.0393556 29C0.0393556 29 -3.57942 112.375 58.5847 145C119.495 112.375 115.877 29 115.877 29C115.873 29 115.873 29 115.869 29C83.2967 29 57.958 0 57.958 0Z"
                fill="#FF4C00"
            />
            <path
                d="M100.971 41.9159C82.3768 37.9936 67.0794 27.5754 57.5778 19.6004C47.7973 27.3542 32.3477 37.5985 14.9493 41.6984C16.6229 62.6436 24.2987 105.64 58.5015 128.147C91.7842 105.705 99.3188 62.9554 100.971 41.9159Z"
                fill="#3A3B40"
            />
            <path
                d="M57.5778 19.5968C47.7973 27.3506 32.3477 37.5949 14.9493 41.6947C15.1956 44.7651 15.5941 48.3466 16.1592 52.229C33.0541 47.9479 48.0219 38.0408 57.5742 30.4718C66.8656 38.2728 81.732 48.372 99.7752 52.4791C100.333 48.5931 100.724 45.0008 100.967 41.9123C82.3768 37.99 67.0794 27.5718 57.5778 19.5968Z"
                fill="#FF4C00"
                fillOpacity="0.2"
            />
            <path
                d="M57.9585 7.25C55.9579 7.25 54.3361 8.87299 54.3361 10.875C54.3361 12.877 55.9579 14.5 57.9585 14.5C59.9591 14.5 61.5809 12.877 61.5809 10.875C61.5809 8.87299 59.9591 7.25 57.9585 7.25ZM108.672 32.625C106.672 32.625 105.05 34.248 105.05 36.25C105.05 38.252 106.672 39.875 108.672 39.875C110.673 39.875 112.295 38.252 112.295 36.25C112.295 34.248 110.673 32.625 108.672 32.625ZM57.9585 130.5C55.9579 130.5 54.3361 132.123 54.3361 134.125C54.3361 136.127 55.9579 137.75 57.9585 137.75C59.9591 137.75 61.5809 136.127 61.5809 134.125C61.5809 132.123 59.9591 130.5 57.9585 130.5ZM7.24481 32.625C5.24423 32.625 3.6224 34.248 3.6224 36.25C3.6224 38.252 5.24423 39.875 7.24481 39.875C9.24539 39.875 10.8672 38.252 10.8672 36.25C10.8672 34.248 9.24539 32.625 7.24481 32.625ZM18.112 87C16.1114 87 14.4896 88.623 14.4896 90.625C14.4896 92.627 16.1114 94.25 18.112 94.25C20.1126 94.25 21.7344 92.627 21.7344 90.625C21.7344 88.623 20.1126 87 18.112 87ZM97.805 87C95.8044 87 94.1825 88.623 94.1825 90.625C94.1825 92.627 95.8044 94.25 97.805 94.25C99.8055 94.25 101.427 92.627 101.427 90.625C101.427 88.623 99.8055 87 97.805 87Z"
                fill="#0B0C0E"
            />
            <path
                d="M63.0054 98.8341L56.8809 104.452L50.7564 98.8341V77.8939H63.0054V85.5892L60.4535 87.0871V88.6194L63.0054 90.1516V91.6838L60.4535 93.216V94.7482L63.0054 96.2804V98.8341Z"
                fill="#FF4C00"
            />
            <path d="M55.8601 103.516L53.8186 101.643V80.4472H55.8601V103.516Z" fill="#3A3B40" />
            <path
                d="M41.5697 64.2784C41.5697 72.5344 48.2573 79.2268 56.5075 79.2268C64.7576 79.2268 71.4452 72.5344 71.4452 64.2784C71.4452 56.0223 64.7576 49.3299 56.5075 49.3299C48.2573 49.3299 41.5697 56.0223 41.5697 64.2784Z"
                fill="#FF4C00"
            />
            <path
                d="M55.9826 52.3196C54.4861 52.3196 53.1774 52.6399 52.0545 53.1364C51.8706 53.1944 51.7356 53.3586 51.7082 53.5528C51.6808 53.749 51.7669 53.9432 51.9273 54.0533C52.0877 54.1614 52.2951 54.1674 52.4614 54.0653C53.4649 53.6208 54.6211 53.3446 55.9826 53.3446C57.9858 53.3446 59.631 53.813 61.0062 54.5457C61.2527 54.6779 61.5578 54.5818 61.687 54.3295C61.8161 54.0773 61.7222 53.765 61.4757 53.6329C59.9635 52.8281 58.1384 52.3196 55.9826 52.3196ZM50.5521 54.0172C50.4719 54.0312 50.3976 54.0633 50.333 54.1133C48.9284 55.1163 47.8975 56.3735 47.1404 57.4285C46.7629 57.957 46.4557 58.4335 46.2014 58.8059C45.9471 59.1782 45.7339 59.4605 45.6693 59.5105C45.5011 59.6106 45.4033 59.8028 45.4229 60.001C45.4405 60.2012 45.5696 60.3714 45.7535 60.4374C45.9373 60.5035 46.1427 60.4554 46.2797 60.3113C46.5614 60.0871 46.7511 59.7848 47.0152 59.3984C47.2793 59.012 47.5923 58.5436 47.9542 58.0371C48.678 57.0261 49.6248 55.871 50.8964 54.9621C51.0901 54.838 51.1761 54.5938 51.1057 54.3716C51.0353 54.1494 50.8279 54.0032 50.599 54.0172C50.5834 54.0172 50.5677 54.0172 50.5521 54.0172ZM56.3112 54.8821C56.0354 54.9221 55.8417 55.1844 55.8809 55.4666C55.92 55.7489 56.1763 55.9471 56.4521 55.9071C61.5422 56.2113 63.6941 59.1101 64.6057 62.3933C65.5173 65.6765 65.038 69.37 64.6057 70.7374C64.5196 71.0076 64.6624 71.2979 64.9265 71.386C65.1906 71.4741 65.4742 71.3279 65.5603 71.0577C66.0807 69.4141 66.5639 65.6805 65.576 62.1211C64.5881 58.5616 61.9726 55.2084 56.5147 54.8821C56.4775 54.8781 56.4423 54.8781 56.4051 54.8821C56.3895 54.8821 56.3738 54.8821 56.3582 54.8821C56.3425 54.8821 56.3269 54.8821 56.3112 54.8821ZM63.1033 54.9141C62.9037 54.9521 62.7453 55.1103 62.7042 55.3145C62.6631 55.5187 62.7472 55.7269 62.9155 55.843C66.8319 58.6097 67.4539 64.8757 67.4539 64.8757C67.4794 65.158 67.7259 65.3662 68.0017 65.3401C68.2775 65.3141 68.481 65.0619 68.4555 64.7796C68.4555 64.7796 67.9195 58.1492 63.4789 55.0102C63.3713 54.9281 63.2363 54.8941 63.1033 54.9141ZM54.3863 55.0742C54.3765 55.0782 54.3648 55.0843 54.355 55.0903C50.8944 55.7929 49.2199 58.2313 47.9229 60.2953C47.7723 60.5335 47.8388 60.8538 48.0716 61.008C48.3044 61.1621 48.6174 61.0941 48.768 60.8558C50.0493 58.8139 51.45 56.7118 54.5428 56.0832C54.7952 56.0192 54.9595 55.7689 54.9184 55.5047C54.8773 55.2424 54.6465 55.0542 54.3863 55.0742ZM56.4834 57.4445C54.7423 57.4445 53.4121 58.0151 52.3831 58.8699C52.166 59.0461 52.1327 59.3704 52.3049 59.5906C52.477 59.8128 52.7939 59.8469 53.0091 59.6707C53.8855 58.944 54.9517 58.4695 56.4834 58.4695C56.9255 58.4695 57.348 58.5076 57.751 58.5816C57.931 58.6217 58.1168 58.5576 58.2362 58.4155C58.3575 58.2713 58.3907 58.0731 58.3262 57.899C58.2596 57.7228 58.1051 57.5967 57.9232 57.5727C57.4615 57.4886 56.9822 57.4445 56.4834 57.4445ZM59.6134 58.1812C59.5977 58.1852 59.5821 58.1913 59.5664 58.1973C59.359 58.2453 59.2025 58.4215 59.1791 58.6377C59.1536 58.8539 59.2651 59.0621 59.4569 59.1582C61.6498 60.3033 62.9937 62.7977 62.9937 66.157C62.9937 67.1539 62.8744 68.2109 62.6964 69.2159C62.6436 69.4942 62.8235 69.7624 63.0954 69.8165C63.3674 69.8705 63.6295 69.6864 63.6823 69.4081C63.8682 68.3611 63.9953 67.24 63.9953 66.157C63.9953 62.5134 62.4832 59.5886 59.9107 58.2453C59.8207 58.1933 59.717 58.1712 59.6134 58.1812ZM56.4834 60.007C55.1786 60.007 54.1652 60.4354 53.4004 61.0961C52.6355 61.7567 52.1132 62.6215 51.6476 63.5144C51.5185 63.7666 51.6124 64.0789 51.8589 64.2111C52.1053 64.3432 52.4105 64.2471 52.5396 63.9949C52.9817 63.144 53.4395 62.4013 54.042 61.8808C54.6445 61.3603 55.3801 61.032 56.4834 61.032C57.5241 61.032 58.2831 61.3663 58.8778 61.8968C59.4725 62.4274 59.899 63.1701 60.1611 63.9949C60.2061 64.179 60.3469 64.3252 60.5269 64.3692C60.7089 64.4153 60.8986 64.3552 61.0218 64.2131C61.1451 64.0689 61.1823 63.8687 61.1157 63.6906C60.8106 62.7316 60.302 61.8128 59.5351 61.1281C58.7683 60.4434 57.7412 60.007 56.4834 60.007ZM51.2094 60.2953C51.0744 60.3213 50.9551 60.4014 50.8807 60.5195C49.8811 61.9028 49.1593 63.4383 48.3298 64.5394C47.5004 65.6404 46.6788 66.2951 45.2155 66.1569C44.9397 66.1309 44.6932 66.3391 44.6677 66.6214C44.6423 66.9037 44.8458 67.1559 45.1216 67.1819C46.937 67.3521 48.1987 66.3992 49.128 65.164C50.0572 63.9288 50.7594 62.4013 51.6789 61.1281C51.7982 60.9759 51.8217 60.7697 51.7434 60.5936C51.6632 60.4174 51.493 60.3013 51.3033 60.2953C51.2876 60.2953 51.272 60.2953 51.2563 60.2953C51.2407 60.2953 51.225 60.2953 51.2094 60.2953ZM47.2343 61.7367C47.2069 61.7407 47.1815 61.7447 47.1561 61.7527C47.0289 61.7787 46.9174 61.8528 46.8431 61.9609C46.2562 62.7797 45.6732 63.3723 44.9494 63.6265C44.7616 63.6685 44.613 63.8187 44.5699 64.0129C44.5269 64.2051 44.5954 64.4053 44.746 64.5274C44.8986 64.6515 45.104 64.6735 45.2781 64.5874C46.2895 64.2311 47.0172 63.4603 47.6569 62.5695C47.7821 62.4113 47.8036 62.1931 47.7116 62.013C47.6197 61.8308 47.4319 61.7227 47.2343 61.7367ZM55.6383 62.2492C55.5776 62.2592 55.519 62.2812 55.4661 62.3132C54.5937 62.7977 54.1926 63.7726 53.8542 64.7476C53.5158 65.7225 53.24 66.7515 52.8996 67.4222C51.9175 69.358 50.0415 71.2819 47.4691 71.2819C47.2891 71.2799 47.1209 71.376 47.0289 71.5361C46.9389 71.6963 46.9389 71.8925 47.0289 72.0526C47.1209 72.2128 47.2891 72.3089 47.4691 72.3069C50.5228 72.3069 52.6922 70.0707 53.7916 67.9026C54.22 67.0558 54.4782 66.0108 54.7932 65.0999C55.1082 64.189 55.4955 63.4623 55.9513 63.2101C56.1704 63.094 56.2741 62.8317 56.1978 62.5915C56.1195 62.3533 55.8809 62.2071 55.6383 62.2492ZM57.3754 62.3453C57.1681 62.3813 57.0057 62.5455 56.9685 62.7557C56.9294 62.9679 57.0233 63.1801 57.2033 63.2902C57.6982 63.6345 57.9858 64.5414 57.9858 65.7085C57.9858 66.4813 57.7138 68.299 56.9998 70.1768C56.2858 72.0546 55.1297 74.0085 53.4473 75.2377C53.2184 75.4019 53.1617 75.7242 53.3221 75.9584C53.4825 76.1926 53.7975 76.2507 54.0264 76.0865C55.9395 74.6892 57.1642 72.5431 57.9232 70.5452C58.6822 68.5472 58.9874 66.7075 58.9874 65.7085C58.9874 64.3812 58.7057 63.104 57.751 62.4414C57.6434 62.3593 57.5084 62.3252 57.3754 62.3453ZM56.4051 64.6195C56.1704 64.6575 55.9943 64.8577 55.9826 65.0999C55.9826 65.0999 55.875 66.7835 55.0123 68.7675C54.9125 68.9376 54.9184 69.1498 55.024 69.314C55.1316 69.4781 55.3214 69.5662 55.5131 69.5382C55.7029 69.5102 55.8633 69.372 55.92 69.1839C56.857 67.0318 56.9842 65.164 56.9842 65.164C56.9959 65.0078 56.9372 64.8537 56.8238 64.7476C56.7103 64.6415 56.5558 64.5954 56.4051 64.6195ZM51.0372 65.132C50.8886 65.164 50.7614 65.2641 50.6929 65.4042C50.2098 66.3251 49.6777 67.1679 48.9558 67.7585C48.234 68.3491 47.3224 68.7194 45.951 68.7194C45.7711 68.7174 45.6028 68.8135 45.5109 68.9737C45.4209 69.1338 45.4209 69.33 45.5109 69.4902C45.6028 69.6503 45.7711 69.7464 45.951 69.7444C47.5102 69.7444 48.6917 69.286 49.5818 68.5593C50.4719 67.8326 51.0764 66.8696 51.585 65.9007C51.6828 65.7305 51.6769 65.5183 51.5713 65.3562C51.4637 65.192 51.2739 65.1039 51.0842 65.132C51.0685 65.132 51.0529 65.132 51.0372 65.132ZM60.9436 65.6284C60.9221 65.6324 60.9006 65.6384 60.881 65.6444C60.6482 65.6985 60.4839 65.9127 60.4897 66.1569C60.4897 71.4721 57.4693 75.3979 57.4693 75.3979C57.2972 75.6241 57.3343 75.9504 57.5554 76.1266C57.7765 76.3027 58.0953 76.2647 58.2675 76.0385C58.2675 76.0385 61.4913 71.8685 61.4913 66.157C61.4972 66.0088 61.4385 65.8667 61.3348 65.7666C61.2292 65.6645 61.0864 65.6144 60.9436 65.6284ZM54.5115 70.1448C54.3628 70.1648 54.2298 70.2529 54.1516 70.385C53.2869 71.7283 52.033 72.9976 50.1765 73.8283C49.9222 73.9385 49.8029 74.2407 49.9104 74.501C50.018 74.7612 50.3134 74.8834 50.5677 74.7733C52.6218 73.8544 54.0303 72.419 54.981 70.9456C55.0925 70.7794 55.1003 70.5632 54.9986 70.391C54.8969 70.2169 54.7071 70.1208 54.5115 70.1448ZM62.6338 70.9456C62.4303 70.9816 62.2699 71.1398 62.2269 71.346C61.8337 72.8674 61.4444 73.9244 61.4444 73.9244C61.37 74.0986 61.3974 74.3008 61.5148 74.4489C61.6302 74.5971 61.8161 74.6672 62 74.6311C62.1819 74.5951 62.3286 74.459 62.3834 74.2768C62.3834 74.2768 62.7922 73.1737 63.1972 71.6022C63.2441 71.44 63.2109 71.2659 63.1072 71.1357C63.0035 71.0036 62.8451 70.9336 62.6807 70.9456C62.6651 70.9456 62.6494 70.9456 62.6338 70.9456Z"
                fill="#3A3B40"
            />
            <path
                d="M168.754 97.4686C164.518 97.4686 160.404 97.1182 156.413 96.4175C152.422 95.6818 148.851 94.6658 145.7 93.3694L147.59 79.1801C151.441 80.7917 155.257 82.0355 159.039 82.9114C162.855 83.7873 166.373 84.2252 169.594 84.2252C173.34 84.2252 176.211 83.5595 178.207 82.2282C180.202 80.8968 181.2 78.9874 181.2 76.4999C181.2 73.2416 179.152 70.649 175.056 68.722L164.343 63.5192C159.056 60.9266 154.96 57.7209 152.054 53.902C149.148 50.0832 147.695 45.8614 147.695 41.2367C147.695 34.7201 149.848 29.675 154.155 26.1014C158.461 22.5278 164.553 20.741 172.43 20.741C177.016 20.741 181.358 21.5468 185.454 23.1584C189.585 24.7701 193.244 27.0999 196.43 30.148L186.872 41.1316C184.456 38.8193 182.023 37.05 179.572 35.8237C177.121 34.5625 174.758 33.9318 172.483 33.9318C169.402 33.9318 167.003 34.5975 165.288 35.9288C163.572 37.2252 162.715 39.1171 162.715 41.6046C162.715 43.2512 163.31 44.8103 164.5 46.2818C165.726 47.7533 167.459 49.0846 169.699 50.2759L179.782 55.4786C185.034 58.2114 189.077 61.3996 191.913 65.0433C194.784 68.687 196.22 72.5934 196.22 76.7626C196.22 83.3843 193.839 88.4995 189.077 92.1082C184.316 95.6818 177.542 97.4686 168.754 97.4686Z"
                fill="white"
            />
            <path
                d="M243.694 96.4175V62.7835C243.694 59.6654 242.993 57.2654 241.593 55.5837C240.228 53.902 238.267 53.0612 235.711 53.0612C228.569 53.0612 224.998 57.9486 224.998 67.7235L221.742 50.8014H226.364C226.889 47.0526 228.167 44.2673 230.197 42.4454C232.228 40.5886 235.309 39.6601 239.44 39.6601C245.322 39.6601 249.873 41.4469 253.094 45.0205C256.315 48.5942 257.925 53.6393 257.925 60.1558V96.4175H243.694ZM210.766 96.4175V17.5878H224.998V96.4175H210.766Z"
                fill="white"
            />
            <path
                d="M293.951 96.4175V43.8644H308.13V96.4175H293.951ZM273.365 96.4175V83.2792H295.001V96.4175H273.365ZM307.08 96.4175V83.2792H324.62V96.4175H307.08ZM276.516 53.8495V40.7112H308.13V53.8495H276.516ZM300.41 33.1961C297.715 33.1961 295.526 32.3552 293.846 30.6735C292.165 28.9918 291.325 26.8021 291.325 24.1044C291.325 21.4067 292.165 19.2169 293.846 17.5352C295.526 15.8535 297.715 15.0127 300.41 15.0127C303.106 15.0127 305.294 15.8535 306.975 17.5352C308.655 19.2169 309.496 21.4067 309.496 24.1044C309.496 26.8021 308.655 28.9918 306.975 30.6735C305.294 32.3552 303.106 33.1961 300.41 33.1961Z"
                fill="white"
            />
            <path
                d="M364.794 97.4686C355.167 97.4686 347.727 94.9811 342.475 90.006C337.224 84.996 334.598 77.8137 334.598 68.4592C334.598 59.35 336.821 52.2729 341.268 47.2278C345.749 42.1827 352.051 39.6601 360.173 39.6601C368.12 39.6601 374.265 41.99 378.606 46.6497C382.947 51.3094 385.118 58.0888 385.118 66.9878C385.118 69.5103 385.013 71.9102 384.803 74.1875H343.946V64.3075H371.149C371.149 60.5588 370.186 57.6858 368.261 55.6888C366.37 53.6918 363.709 52.6933 360.278 52.6933C356.567 52.6933 353.679 54.0246 351.613 56.6873C349.582 59.315 348.567 63.0638 348.567 67.9337C348.567 73.189 350.073 77.1831 353.084 79.9158C356.129 82.6486 360.453 84.015 366.055 84.015C368.576 84.015 371.061 83.8924 373.512 83.6471C375.963 83.3668 378.466 82.999 381.022 82.5435L382.387 95.9971C378.816 96.6277 375.56 97.0306 372.619 97.2058C369.678 97.381 367.07 97.4686 364.794 97.4686Z"
                fill="white"
            />
            <path
                d="M431.699 97.4686C424.697 97.4686 419.638 95.5416 416.522 91.6877C413.441 87.8338 411.901 81.6676 411.901 73.189V17.5878H426.08V72.6635C426.08 74.9758 426.325 76.8678 426.815 78.3392C427.306 79.8107 428.251 80.8968 429.651 81.5975C431.052 82.2982 433.135 82.6486 435.901 82.6486C438.981 82.6486 442.868 81.9829 447.559 80.6516L449.187 95.2614C446.211 96.0321 443.34 96.5927 440.574 96.9431C437.809 97.2934 434.85 97.4686 431.699 97.4686ZM396.146 30.6735V17.5878H412.846V30.6735H396.146Z"
                fill="white"
            />
            <path
                d="M480.906 97.4686C474.009 97.4686 468.635 94.9811 464.784 90.006C460.968 85.031 459.06 77.9013 459.06 68.6169C459.06 59.4026 460.968 52.2729 464.784 47.2278C468.635 42.1827 474.044 39.6601 481.011 39.6601C485.073 39.6601 488.154 40.5886 490.254 42.4454C492.39 44.2673 493.773 47.0526 494.403 50.8014H499.024L495.768 68.6169C495.768 63.2215 494.858 59.28 493.037 56.7924C491.252 54.3049 488.539 53.0612 484.898 53.0612C481.292 53.0612 478.508 54.4276 476.548 57.1603C474.587 59.858 473.607 63.6769 473.607 68.6169C473.607 73.7321 474.552 77.586 476.443 80.1786C478.368 82.7712 481.186 84.0675 484.898 84.0675C488.959 84.0675 491.777 82.8413 493.353 80.3888C494.963 77.9363 495.768 74.0124 495.768 68.6169L499.549 86.3273H494.613C494.053 90.0411 492.6 92.8264 490.254 94.6833C487.908 96.5402 484.793 97.4686 480.906 97.4686ZM497.816 96.9431L495.768 85.9069V17.5878H510V96.4175L497.816 96.9431Z"
                fill="white"
            />
            <path
                d="M150.554 118.186V115.967H153.285C154.561 115.967 155.526 115.652 156.179 115.021C156.833 114.383 157.16 113.453 157.16 112.23C157.16 111.156 156.833 110.342 156.179 109.789C155.526 109.237 154.561 108.96 153.285 108.96H150.601V106.741H153.285C155.362 106.741 156.934 107.205 158 108.131C159.074 109.058 159.61 110.424 159.61 112.23C159.61 114.184 159.074 115.668 158 116.68C156.934 117.684 155.362 118.186 153.285 118.186H150.554ZM148.407 123.325V106.741H150.834V123.325H148.407Z"
                fill="white"
                fillOpacity="0.7"
            />
            <path
                d="M170.534 123.558C168.822 123.558 167.492 122.998 166.542 121.877C165.593 120.755 165.119 119.175 165.119 117.135C165.119 115.088 165.593 113.507 166.542 112.394C167.492 111.273 168.822 110.712 170.534 110.712C172.253 110.712 173.583 111.273 174.525 112.394C175.474 113.507 175.949 115.088 175.949 117.135C175.949 119.175 175.474 120.755 174.525 121.877C173.583 122.998 172.253 123.558 170.534 123.558ZM170.534 121.339C171.444 121.339 172.144 120.973 172.634 120.242C173.132 119.51 173.381 118.474 173.381 117.135C173.381 115.788 173.132 114.753 172.634 114.029C172.144 113.297 171.444 112.931 170.534 112.931C169.623 112.931 168.919 113.297 168.421 114.029C167.931 114.753 167.686 115.788 167.686 117.135C167.686 118.474 167.931 119.51 168.421 120.242C168.919 120.973 169.623 121.339 170.534 121.339Z"
                fill="white"
                fillOpacity="0.7"
            />
            <path
                d="M188.926 123.325L187.479 113.491H187.292L186.277 110.946H188.541L189.999 121.456H190.209L191.26 110.946H193.71L191.96 123.325H188.926ZM182.741 123.325L181.34 110.946H183.674L184.608 121.456H184.818L186.277 110.946H188.541L187.502 113.491H187.339L185.892 123.325H182.741Z"
                fill="white"
                fillOpacity="0.7"
            />
            <path
                d="M205.591 123.558C203.482 123.558 201.852 123.006 200.701 121.9C199.557 120.787 198.985 119.191 198.985 117.112C198.985 115.088 199.472 113.515 200.444 112.394C201.417 111.273 202.79 110.712 204.564 110.712C206.236 110.712 207.528 111.218 208.438 112.23C209.356 113.242 209.815 114.714 209.815 116.645C209.815 117.213 209.792 117.742 209.745 118.233H201.063V116.341H207.575C207.575 115.228 207.31 114.375 206.781 113.783C206.252 113.184 205.521 112.884 204.587 112.884C203.537 112.884 202.72 113.242 202.136 113.959C201.561 114.675 201.273 115.687 201.273 116.995C201.273 118.428 201.67 119.518 202.463 120.265C203.264 121.012 204.4 121.386 205.871 121.386C206.384 121.386 206.89 121.359 207.388 121.304C207.886 121.242 208.392 121.16 208.905 121.059L209.208 123.231C208.477 123.371 207.808 123.461 207.201 123.5C206.594 123.539 206.057 123.558 205.591 123.558Z"
                fill="white"
                fillOpacity="0.7"
            />
            <path
                d="M220.668 117.999L219.945 114.122H220.902C221.042 111.849 222.178 110.712 224.31 110.712C225.585 110.712 226.511 111.078 227.087 111.81C227.663 112.542 227.951 113.725 227.951 115.36H225.5C225.5 114.457 225.364 113.807 225.091 113.41C224.827 113.013 224.395 112.814 223.796 112.814C222.746 112.814 221.96 113.266 221.439 114.169C220.925 115.064 220.668 116.341 220.668 117.999ZM215.44 123.325V121.153H223.703V123.325H215.44ZM218.194 123.325V110.946H220.202L220.668 114.496V123.325H218.194ZM215.907 113.118V110.946H220.038L220.272 113.118H215.907Z"
                fill="white"
                fillOpacity="0.7"
            />
            <path
                d="M238.08 123.325V111.646H240.554V123.325H238.08ZM233.366 123.325V121.153H238.314V123.325H233.366ZM240.321 123.325V121.153H244.359V123.325H240.321ZM234.066 113.118V110.946H240.554V113.118H234.066ZM239.236 108.984C238.761 108.984 238.353 108.816 238.01 108.481C237.676 108.139 237.508 107.73 237.508 107.255C237.508 106.772 237.676 106.364 238.01 106.029C238.353 105.694 238.761 105.527 239.236 105.527C239.718 105.527 240.126 105.694 240.461 106.029C240.796 106.364 240.963 106.772 240.963 107.255C240.963 107.73 240.796 108.139 240.461 108.481C240.126 108.816 239.718 108.984 239.236 108.984Z"
                fill="white"
                fillOpacity="0.7"
            />
            <path
                d="M258.06 123.325V115.267C258.06 114.519 257.865 113.943 257.476 113.538C257.087 113.133 256.542 112.931 255.842 112.931C253.897 112.931 252.925 114.075 252.925 116.364L252.201 113.188H253.158C253.228 112.355 253.532 111.736 254.068 111.331C254.605 110.918 255.391 110.712 256.426 110.712C257.733 110.712 258.744 111.109 259.46 111.903C260.176 112.697 260.534 113.818 260.534 115.267V123.325H258.06ZM250.451 123.325V110.946H252.691L252.925 113.562V123.325H250.451Z"
                fill="white"
                fillOpacity="0.7"
            />
            <path
                d="M267.606 128.907L267.489 126.641L271.457 126.525C272.709 126.486 273.62 126.139 274.188 125.485C274.756 124.831 275.043 123.87 275.051 122.601V113.562L275.285 110.946H277.525V122.227C277.525 124.43 277.023 126.058 276.02 127.109C275.016 128.16 273.417 128.72 271.223 128.79L267.606 128.907ZM271.539 123.558C269.92 123.558 268.691 123.025 267.851 121.958C267.018 120.892 266.602 119.323 266.602 117.252C266.602 115.103 267.018 113.476 267.851 112.37C268.691 111.265 269.92 110.712 271.539 110.712C272.503 110.712 273.285 110.93 273.884 111.366C274.483 111.802 274.833 112.409 274.935 113.188H275.892L275.051 116.715C275.051 115.438 274.798 114.469 274.293 113.807C273.795 113.145 273.06 112.814 272.087 112.814C271.091 112.814 270.337 113.188 269.823 113.935C269.31 114.683 269.053 115.788 269.053 117.252C269.053 118.638 269.31 119.685 269.823 120.393C270.337 121.102 271.091 121.456 272.087 121.456C273.06 121.456 273.795 121.125 274.293 120.464C274.798 119.802 275.051 118.832 275.051 117.556L275.892 121.082H274.818C274.74 121.861 274.409 122.468 273.826 122.904C273.25 123.34 272.488 123.558 271.539 123.558Z"
                fill="white"
                fillOpacity="0.7"
            />
            <path
                d="M302.908 123.558C301.966 123.558 301.083 123.48 300.259 123.325C299.442 123.177 298.683 122.951 297.983 122.647L298.286 120.288C299.142 120.654 299.967 120.935 300.761 121.129C301.562 121.316 302.34 121.409 303.095 121.409C304.184 121.409 304.993 121.219 305.522 120.837C306.051 120.456 306.316 119.876 306.316 119.097C306.316 118.108 305.81 117.384 304.798 116.925L301.928 115.617C300.799 115.103 299.932 114.484 299.325 113.76C298.726 113.036 298.427 112.137 298.427 111.062C298.427 109.614 298.862 108.493 299.734 107.699C300.605 106.905 301.838 106.508 303.433 106.508C304.546 106.508 305.53 106.671 306.386 106.998C307.241 107.325 308.066 107.859 308.86 108.598L307.226 110.257C306.541 109.696 305.899 109.291 305.3 109.042C304.709 108.785 304.09 108.657 303.445 108.657C302.643 108.657 302.021 108.851 301.577 109.241C301.142 109.622 300.924 110.19 300.924 110.946C300.924 111.483 301.068 111.923 301.356 112.265C301.644 112.6 302.068 112.9 302.628 113.164L305.055 114.309C306.284 114.885 307.218 115.535 307.856 116.259C308.494 116.983 308.813 117.914 308.813 119.05C308.813 120.553 308.323 121.682 307.342 122.437C306.37 123.185 304.892 123.558 302.908 123.558Z"
                fill="white"
                fillOpacity="0.7"
            />
            <path
                d="M321.545 123.558C319.437 123.558 317.807 123.006 316.655 121.9C315.512 120.787 314.94 119.191 314.94 117.112C314.94 115.088 315.426 113.515 316.398 112.394C317.371 111.273 318.744 110.712 320.518 110.712C322.191 110.712 323.482 111.218 324.393 112.23C325.311 113.242 325.77 114.714 325.77 116.645C325.77 117.213 325.746 117.742 325.7 118.233H317.017V116.341H323.529C323.529 115.228 323.264 114.375 322.735 113.783C322.206 113.184 321.475 112.884 320.541 112.884C319.491 112.884 318.674 113.242 318.091 113.959C317.515 114.675 317.227 115.687 317.227 116.995C317.227 118.428 317.624 119.518 318.417 120.265C319.219 121.012 320.355 121.386 321.825 121.386C322.339 121.386 322.844 121.359 323.342 121.304C323.84 121.242 324.346 121.16 324.859 121.059L325.163 123.231C324.431 123.371 323.762 123.461 323.156 123.5C322.549 123.539 322.012 123.558 321.545 123.558Z"
                fill="white"
                fillOpacity="0.7"
            />
            <path
                d="M338.653 123.558C336.545 123.558 334.915 123.006 333.764 121.9C332.62 120.787 332.048 119.191 332.048 117.112C332.048 115.088 332.589 113.515 333.67 112.394C334.759 111.273 336.312 110.712 338.327 110.712C339.533 110.712 340.563 110.938 341.419 111.389C342.283 111.833 342.897 112.464 343.263 113.281L341.361 114.718C341.011 114.149 340.563 113.709 340.019 113.398C339.474 113.087 338.879 112.931 338.233 112.931C337.066 112.931 336.16 113.285 335.514 113.994C334.868 114.694 334.546 115.695 334.546 116.995C334.546 118.404 334.923 119.483 335.678 120.23C336.44 120.97 337.525 121.339 338.934 121.339C339.509 121.339 340.085 121.312 340.661 121.258C341.236 121.203 341.797 121.129 342.341 121.036L342.621 123.208C341.983 123.348 341.322 123.442 340.637 123.488C339.96 123.535 339.299 123.558 338.653 123.558Z"
                fill="white"
                fillOpacity="0.7"
            />
            <path
                d="M353.241 123.558C351.942 123.558 350.934 123.173 350.219 122.402C349.511 121.624 349.157 120.53 349.157 119.12V110.946H351.631V119.12C351.631 119.829 351.833 120.378 352.237 120.767C352.642 121.149 353.21 121.339 353.941 121.339C354.844 121.339 355.525 121.055 355.984 120.487C356.443 119.911 356.672 118.949 356.672 117.602L357.302 120.942H356.485C356.291 121.783 355.91 122.429 355.342 122.881C354.774 123.333 354.074 123.558 353.241 123.558ZM356.882 123.442L356.672 120.475V118.303H359.146V121.082L360.85 121.339V123.325L356.882 123.442ZM356.672 119.821V110.946H359.146V119.12L356.672 119.821Z"
                fill="white"
                fillOpacity="0.7"
            />
            <path
                d="M370.606 117.999L369.883 114.122H370.84C370.98 111.849 372.116 110.712 374.247 110.712C375.523 110.712 376.449 111.078 377.025 111.81C377.601 112.542 377.888 113.725 377.888 115.36H375.438C375.438 114.457 375.302 113.807 375.029 113.41C374.765 113.013 374.333 112.814 373.734 112.814C372.684 112.814 371.898 113.266 371.376 114.169C370.863 115.064 370.606 116.341 370.606 117.999ZM365.378 123.325V121.153H373.64V123.325H365.378ZM368.132 123.325V110.946H370.139L370.606 114.496V123.325H368.132ZM365.845 113.118V110.946H369.976L370.209 113.118H365.845Z"
                fill="white"
                fillOpacity="0.7"
            />
            <path
                d="M389.512 123.558C387.403 123.558 385.773 123.006 384.622 121.9C383.478 120.787 382.907 119.191 382.907 117.112C382.907 115.088 383.393 113.515 384.365 112.394C385.338 111.273 386.711 110.712 388.485 110.712C390.158 110.712 391.449 111.218 392.359 112.23C393.277 113.242 393.736 114.714 393.736 116.645C393.736 117.213 393.713 117.742 393.666 118.233H384.984V116.341H391.496C391.496 115.228 391.231 114.375 390.702 113.783C390.173 113.184 389.442 112.884 388.508 112.884C387.458 112.884 386.641 113.242 386.057 113.959C385.482 114.675 385.194 115.687 385.194 116.995C385.194 118.428 385.591 119.518 386.384 120.265C387.186 121.012 388.321 121.386 389.792 121.386C390.305 121.386 390.811 121.359 391.309 121.304C391.807 121.242 392.313 121.16 392.826 121.059L393.13 123.231C392.398 123.371 391.729 123.461 391.122 123.5C390.515 123.539 389.979 123.558 389.512 123.558Z"
                fill="white"
                fillOpacity="0.7"
            />
            <path
                d="M412.957 123.325L417.742 106.741H421.126L425.911 123.325H423.46L419.539 108.75H419.329L415.408 123.325H412.957ZM415.174 119.284V117.065H423.577V119.284H415.174Z"
                fill="white"
                fillOpacity="0.7"
            />
            <path
                d="M437.616 123.558C435.508 123.558 433.878 123.006 432.726 121.9C431.583 120.787 431.011 119.191 431.011 117.112C431.011 115.088 431.551 113.515 432.633 112.394C433.722 111.273 435.274 110.712 437.289 110.712C438.495 110.712 439.526 110.938 440.382 111.389C441.245 111.833 441.86 112.464 442.226 113.281L440.324 114.718C439.973 114.149 439.526 113.709 438.981 113.398C438.437 113.087 437.842 112.931 437.196 112.931C436.029 112.931 435.123 113.285 434.477 113.994C433.831 114.694 433.508 115.695 433.508 116.995C433.508 118.404 433.886 119.483 434.64 120.23C435.403 120.97 436.488 121.339 437.896 121.339C438.472 121.339 439.048 121.312 439.623 121.258C440.199 121.203 440.759 121.129 441.304 121.036L441.584 123.208C440.946 123.348 440.285 123.442 439.6 123.488C438.923 123.535 438.262 123.558 437.616 123.558Z"
                fill="white"
                fillOpacity="0.7"
            />
            <path
                d="M454.608 123.558C452.499 123.558 450.869 123.006 449.718 121.9C448.574 120.787 448.002 119.191 448.002 117.112C448.002 115.088 448.543 113.515 449.625 112.394C450.714 111.273 452.266 110.712 454.281 110.712C455.487 110.712 456.518 110.938 457.374 111.389C458.237 111.833 458.852 112.464 459.217 113.281L457.315 114.718C456.965 114.149 456.518 113.709 455.973 113.398C455.429 113.087 454.833 112.931 454.188 112.931C453.021 112.931 452.114 113.285 451.469 113.994C450.823 114.694 450.5 115.695 450.5 116.995C450.5 118.404 450.877 119.483 451.632 120.23C452.394 120.97 453.48 121.339 454.888 121.339C455.464 121.339 456.039 121.312 456.615 121.258C457.191 121.203 457.751 121.129 458.296 121.036L458.576 123.208C457.938 123.348 457.276 123.442 456.592 123.488C455.915 123.535 455.254 123.558 454.608 123.558Z"
                fill="white"
                fillOpacity="0.7"
            />
            <path
                d="M471.483 123.558C469.374 123.558 467.744 123.006 466.593 121.9C465.449 120.787 464.877 119.191 464.877 117.112C464.877 115.088 465.364 113.515 466.336 112.394C467.309 111.273 468.682 110.712 470.456 110.712C472.129 110.712 473.42 111.218 474.33 112.23C475.248 113.242 475.707 114.714 475.707 116.645C475.707 117.213 475.684 117.742 475.637 118.233H466.955V116.341H473.467C473.467 115.228 473.202 114.375 472.673 113.783C472.144 113.184 471.413 112.884 470.479 112.884C469.429 112.884 468.612 113.242 468.028 113.959C467.453 114.675 467.165 115.687 467.165 116.995C467.165 118.428 467.562 119.518 468.355 120.265C469.157 121.012 470.292 121.386 471.763 121.386C472.276 121.386 472.782 121.359 473.28 121.304C473.778 121.242 474.284 121.16 474.797 121.059L475.1 123.231C474.369 123.371 473.7 123.461 473.093 123.5C472.486 123.539 471.95 123.558 471.483 123.558Z"
                fill="white"
                fillOpacity="0.7"
            />
            <path
                d="M486.444 123.558C485.51 123.558 484.709 123.531 484.04 123.477C483.379 123.422 482.772 123.333 482.219 123.208L482.499 120.966C483.316 121.09 484.036 121.184 484.658 121.246C485.289 121.308 485.884 121.339 486.444 121.339C487.696 121.339 488.603 121.219 489.163 120.977C489.731 120.728 490.015 120.335 490.015 119.798C490.015 119.424 489.914 119.148 489.711 118.969C489.517 118.782 489.214 118.638 488.801 118.537L485.954 117.812C484.732 117.501 483.834 117.116 483.258 116.656C482.69 116.197 482.406 115.5 482.406 114.566C482.406 113.211 482.923 112.23 483.958 111.623C485.001 111.016 486.677 110.712 488.988 110.712C489.587 110.712 490.143 110.731 490.657 110.77C491.178 110.802 491.711 110.86 492.256 110.946L491.999 113.094C491.369 113.032 490.812 112.989 490.33 112.966C489.848 112.943 489.377 112.931 488.918 112.931C487.533 112.931 486.529 113.052 485.907 113.293C485.285 113.526 484.973 113.912 484.973 114.449C484.973 114.807 485.102 115.068 485.359 115.232C485.615 115.387 486.008 115.531 486.537 115.664L488.825 116.224C490.124 116.536 491.073 116.952 491.672 117.474C492.279 117.995 492.582 118.755 492.582 119.751C492.582 121.082 492.096 122.052 491.124 122.659C490.151 123.259 488.591 123.558 486.444 123.558Z"
                fill="white"
                fillOpacity="0.7"
            />
            <path
                d="M503.436 123.558C502.502 123.558 501.701 123.531 501.032 123.477C500.37 123.422 499.763 123.333 499.211 123.208L499.491 120.966C500.308 121.09 501.028 121.184 501.65 121.246C502.28 121.308 502.875 121.339 503.436 121.339C504.688 121.339 505.595 121.219 506.155 120.977C506.723 120.728 507.007 120.335 507.007 119.798C507.007 119.424 506.905 119.148 506.703 118.969C506.509 118.782 506.205 118.638 505.793 118.537L502.945 117.812C501.724 117.501 500.825 117.116 500.25 116.656C499.682 116.197 499.398 115.5 499.398 114.566C499.398 113.211 499.915 112.23 500.95 111.623C501.992 111.016 503.669 110.712 505.98 110.712C506.579 110.712 507.135 110.731 507.648 110.77C508.17 110.802 508.703 110.86 509.247 110.946L508.991 113.094C508.36 113.032 507.804 112.989 507.322 112.966C506.839 112.943 506.369 112.931 505.91 112.931C504.525 112.931 503.521 113.052 502.899 113.293C502.276 113.526 501.965 113.912 501.965 114.449C501.965 114.807 502.094 115.068 502.35 115.232C502.607 115.387 503 115.531 503.529 115.664L505.816 116.224C507.116 116.536 508.065 116.952 508.664 117.474C509.271 117.995 509.574 118.755 509.574 119.751C509.574 121.082 509.088 122.052 508.115 122.659C507.143 123.259 505.583 123.558 503.436 123.558Z"
                fill="white"
                fillOpacity="0.7"
            />
        </svg>