<svg width="443" height="625" viewBox="0 0 443 625" fill="none" xmlns="http://www.w3.org/2000/svg">
<g opacity="0.15">
<path d="M249.997 0C249.997 0 125.091 124.95 0.169757 124.95C0.169757 124.95 -15.4395 484.183 252.7 624.753C515.433 484.183 499.824 124.95 499.824 124.95C499.808 124.95 499.808 124.95 499.793 124.95C359.293 124.95 249.997 0 249.997 0Z" fill="#FF4C00"/>
<path d="M435.528 180.6C355.325 163.701 289.341 118.812 248.357 84.4509C206.17 117.86 139.529 161.998 64.4826 179.663C71.7013 269.909 104.811 455.163 252.341 552.141C395.903 455.445 428.403 271.252 435.528 180.6Z" fill="#3A3B40"/>
<path d="M248.357 84.4353C206.17 117.844 139.529 161.983 64.4826 179.648C65.5451 192.877 67.2639 208.308 69.7013 225.036C142.576 206.59 207.138 163.904 248.341 131.292C288.419 164.903 352.544 208.417 430.372 226.114C432.778 209.37 434.466 193.892 435.512 180.585C355.325 163.685 289.341 118.797 248.357 84.4353Z" fill="#FF4C00" fill-opacity="0.2"/>
<path d="M249.999 31.2376C241.37 31.2376 234.374 38.2305 234.374 46.8564C234.374 55.4824 241.37 62.4753 249.999 62.4753C258.628 62.4753 265.624 55.4824 265.624 46.8564C265.624 38.2305 258.628 31.2376 249.999 31.2376ZM468.748 140.569C460.119 140.569 453.123 147.562 453.123 156.188C453.123 164.814 460.119 171.807 468.748 171.807C477.377 171.807 484.373 164.814 484.373 156.188C484.373 147.562 477.377 140.569 468.748 140.569ZM249.999 562.277C241.37 562.277 234.374 569.27 234.374 577.896C234.374 586.522 241.37 593.515 249.999 593.515C258.628 593.515 265.624 586.522 265.624 577.896C265.624 569.27 258.628 562.277 249.999 562.277ZM31.2499 140.569C22.6205 140.569 15.6249 147.562 15.6249 156.188C15.6249 164.814 22.6205 171.807 31.2499 171.807C39.8792 171.807 46.8748 164.814 46.8748 156.188C46.8748 147.562 39.8792 140.569 31.2499 140.569ZM78.1247 374.852C69.4953 374.852 62.4997 381.844 62.4997 390.47C62.4997 399.096 69.4953 406.089 78.1247 406.089C86.754 406.089 93.7496 399.096 93.7496 390.47C93.7496 381.844 86.754 374.852 78.1247 374.852ZM421.873 374.852C413.244 374.852 406.248 381.844 406.248 390.47C406.248 399.096 413.244 406.089 421.873 406.089C430.503 406.089 437.498 399.096 437.498 390.47C437.498 381.844 430.503 374.852 421.873 374.852Z" fill="#0B0C0E"/>
<path d="M271.768 425.84L245.351 450.047L218.933 425.84V335.616H271.768V368.773L260.761 375.227V381.829L271.768 388.43V395.032L260.761 401.634V408.236L271.768 414.837V425.84Z" fill="#FF4C00"/>
<path d="M240.948 446.012L232.142 437.942V346.618H240.948V446.012Z" fill="#3A3B40"/>
<path d="M179.307 276.952C179.307 312.524 208.154 341.36 243.74 341.36C279.326 341.36 308.173 312.524 308.173 276.952C308.173 241.38 279.326 212.545 243.74 212.545C208.154 212.545 179.307 241.38 179.307 276.952Z" fill="#FF4C00"/>
<path d="M241.476 225.426C235.021 225.426 229.376 226.806 224.533 228.945C223.739 229.196 223.157 229.903 223.039 230.74C222.921 231.585 223.292 232.422 223.984 232.896C224.676 233.362 225.57 233.388 226.288 232.948C230.616 231.033 235.603 229.842 241.476 229.842C250.117 229.842 257.213 231.861 263.145 235.018C264.208 235.587 265.524 235.173 266.081 234.086C266.638 232.999 266.233 231.654 265.17 231.085C258.648 227.617 250.775 225.426 241.476 225.426ZM218.052 232.741C217.706 232.801 217.386 232.939 217.107 233.155C211.049 237.476 206.602 242.893 203.336 247.439C201.708 249.716 200.383 251.769 199.286 253.373C198.189 254.977 197.269 256.194 196.991 256.409C196.265 256.841 195.843 257.669 195.928 258.523C196.004 259.385 196.56 260.118 197.354 260.403C198.147 260.688 199.033 260.481 199.623 259.86C200.839 258.893 201.657 257.591 202.796 255.926C203.935 254.262 205.285 252.243 206.846 250.061C209.968 245.705 214.052 240.728 219.537 236.812C220.373 236.277 220.744 235.225 220.44 234.267C220.136 233.31 219.242 232.68 218.255 232.741C218.187 232.741 218.12 232.741 218.052 232.741ZM242.894 236.467C241.704 236.639 240.869 237.769 241.037 238.986C241.206 240.202 242.311 241.056 243.501 240.883C265.457 242.194 274.739 254.684 278.671 268.83C282.603 282.976 280.536 298.89 278.671 304.782C278.3 305.946 278.916 307.197 280.055 307.576C281.194 307.956 282.417 307.326 282.789 306.162C285.033 299.08 287.117 282.993 282.856 267.657C278.595 252.321 267.313 237.873 243.771 236.467C243.611 236.45 243.459 236.45 243.299 236.467C243.231 236.467 243.164 236.467 243.096 236.467C243.029 236.467 242.961 236.467 242.894 236.467ZM272.191 236.605C271.33 236.769 270.646 237.45 270.469 238.33C270.292 239.21 270.655 240.107 271.38 240.607C288.273 252.528 290.957 279.526 290.957 279.526C291.066 280.742 292.13 281.639 293.319 281.527C294.509 281.415 295.387 280.328 295.277 279.112C295.277 279.112 292.965 250.544 273.811 237.019C273.347 236.665 272.764 236.519 272.191 236.605ZM234.591 237.295C234.548 237.312 234.498 237.338 234.456 237.364C219.529 240.392 212.306 250.898 206.711 259.791C206.062 260.817 206.349 262.197 207.353 262.861C208.357 263.525 209.707 263.232 210.357 262.206C215.884 253.408 221.925 244.351 235.266 241.642C236.354 241.366 237.063 240.288 236.886 239.15C236.709 238.02 235.713 237.209 234.591 237.295ZM243.636 247.508C236.126 247.508 230.389 249.966 225.95 253.649C225.013 254.408 224.87 255.806 225.613 256.754C226.355 257.712 227.722 257.858 228.65 257.099C232.431 253.968 237.029 251.924 243.636 251.924C245.543 251.924 247.366 252.088 249.104 252.407C249.88 252.58 250.682 252.304 251.197 251.691C251.72 251.07 251.863 250.216 251.585 249.466C251.298 248.707 250.631 248.163 249.847 248.06C247.855 247.697 245.788 247.508 243.636 247.508ZM257.137 250.682C257.07 250.699 257.002 250.725 256.935 250.751C256.04 250.958 255.365 251.717 255.264 252.649C255.154 253.58 255.635 254.477 256.462 254.891C265.921 259.825 271.718 270.573 271.718 285.046C271.718 289.342 271.203 293.896 270.435 298.226C270.208 299.425 270.984 300.581 272.157 300.814C273.33 301.047 274.46 300.253 274.688 299.054C275.49 294.543 276.038 289.713 276.038 285.046C276.038 269.348 269.516 256.746 258.42 250.958C258.032 250.734 257.584 250.639 257.137 250.682ZM243.636 258.548C238.008 258.548 233.637 260.394 230.338 263.241C227.039 266.087 224.786 269.813 222.777 273.66C222.22 274.747 222.626 276.093 223.689 276.662C224.752 277.232 226.068 276.818 226.625 275.731C228.532 272.065 230.507 268.865 233.106 266.622C235.704 264.379 238.877 262.965 243.636 262.965C248.125 262.965 251.399 264.405 253.964 266.691C256.53 268.977 258.369 272.177 259.5 275.731C259.694 276.524 260.301 277.154 261.078 277.344C261.862 277.542 262.681 277.283 263.212 276.671C263.744 276.05 263.904 275.187 263.617 274.42C262.301 270.288 260.107 266.329 256.8 263.379C253.492 260.429 249.062 258.548 243.636 258.548ZM220.887 259.791C220.305 259.903 219.79 260.248 219.47 260.757C215.158 266.717 212.044 273.333 208.466 278.077C204.889 282.821 201.345 285.641 195.033 285.046C193.843 284.934 192.78 285.831 192.67 287.047C192.561 288.264 193.438 289.35 194.628 289.463C202.459 290.196 207.901 286.09 211.909 280.768C215.917 275.446 218.947 268.865 222.912 263.379C223.427 262.723 223.528 261.835 223.191 261.076C222.845 260.317 222.111 259.816 221.292 259.791C221.225 259.791 221.157 259.791 221.09 259.791C221.022 259.791 220.955 259.791 220.887 259.791ZM203.741 266.001C203.623 266.018 203.513 266.035 203.404 266.07C202.855 266.182 202.374 266.501 202.054 266.967C199.522 270.495 197.008 273.048 193.886 274.144C193.076 274.325 192.434 274.972 192.249 275.808C192.063 276.636 192.358 277.499 193.008 278.025C193.666 278.56 194.552 278.655 195.303 278.284C199.666 276.749 202.805 273.428 205.564 269.589C206.104 268.908 206.197 267.968 205.8 267.191C205.403 266.406 204.593 265.941 203.741 266.001ZM239.991 268.209C239.729 268.252 239.476 268.347 239.248 268.485C235.485 270.573 233.755 274.773 232.296 278.974C230.836 283.175 229.646 287.608 228.178 290.498C223.942 298.839 215.85 307.128 204.754 307.128C203.977 307.119 203.252 307.533 202.855 308.223C202.467 308.913 202.467 309.759 202.855 310.449C203.252 311.139 203.977 311.553 204.754 311.544C217.926 311.544 227.283 301.909 232.025 292.568C233.873 288.919 234.987 284.417 236.346 280.492C237.704 276.567 239.375 273.436 241.341 272.349C242.286 271.849 242.733 270.719 242.404 269.684C242.067 268.658 241.037 268.028 239.991 268.209ZM247.484 268.623C246.59 268.778 245.889 269.486 245.729 270.391C245.56 271.306 245.965 272.22 246.741 272.694C248.876 274.178 250.117 278.085 250.117 283.114C250.117 286.444 248.944 294.276 245.864 302.367C242.784 310.457 237.797 318.876 230.54 324.172C229.553 324.879 229.308 326.268 230 327.277C230.692 328.286 232.051 328.537 233.038 327.829C241.29 321.809 246.573 312.562 249.847 303.954C253.121 295.345 254.437 287.418 254.437 283.114C254.437 277.395 253.222 271.892 249.104 269.037C248.64 268.684 248.058 268.537 247.484 268.623ZM243.299 278.422C242.286 278.586 241.527 279.448 241.476 280.492C241.476 280.492 241.012 287.746 237.291 296.294C236.86 297.027 236.886 297.942 237.341 298.649C237.806 299.356 238.624 299.736 239.451 299.615C240.269 299.494 240.961 298.899 241.206 298.088C245.248 288.816 245.796 280.768 245.796 280.768C245.847 280.095 245.594 279.431 245.104 278.974C244.615 278.517 243.948 278.318 243.299 278.422ZM220.145 280.63C219.503 280.768 218.955 281.199 218.66 281.803C216.575 285.771 214.28 289.402 211.167 291.947C208.053 294.491 204.121 296.087 198.206 296.087C197.43 296.078 196.704 296.492 196.307 297.183C195.919 297.873 195.919 298.718 196.307 299.408C196.704 300.098 197.43 300.512 198.206 300.503C204.931 300.503 210.028 298.528 213.867 295.397C217.706 292.266 220.313 288.117 222.507 283.942C222.929 283.209 222.904 282.295 222.448 281.596C221.984 280.889 221.166 280.509 220.347 280.63C220.28 280.63 220.212 280.63 220.145 280.63ZM262.875 282.769C262.782 282.786 262.689 282.812 262.605 282.838C261.601 283.071 260.892 283.994 260.917 285.046C260.917 307.947 247.889 324.862 247.889 324.862C247.146 325.837 247.307 327.243 248.26 328.002C249.214 328.761 250.589 328.597 251.332 327.622C251.332 327.622 265.238 309.655 265.238 285.046C265.263 284.408 265.01 283.796 264.563 283.364C264.107 282.924 263.491 282.709 262.875 282.769ZM235.131 302.228C234.489 302.315 233.916 302.694 233.578 303.264C229.848 309.051 224.44 314.52 216.432 318.1C215.335 318.574 214.82 319.876 215.284 320.998C215.749 322.119 217.023 322.645 218.12 322.171C226.98 318.212 233.055 312.027 237.156 305.679C237.637 304.963 237.671 304.031 237.232 303.289C236.793 302.539 235.974 302.125 235.131 302.228ZM270.165 305.679C269.288 305.834 268.596 306.515 268.41 307.404C266.714 313.959 265.035 318.514 265.035 318.514C264.714 319.264 264.833 320.135 265.339 320.774C265.837 321.412 266.638 321.714 267.431 321.558C268.216 321.403 268.849 320.817 269.085 320.032C269.085 320.032 270.849 315.279 272.596 308.508C272.798 307.809 272.655 307.059 272.207 306.498C271.76 305.929 271.077 305.627 270.368 305.679C270.3 305.679 270.233 305.679 270.165 305.679Z" fill="#3A3B40"/>
</g>
</svg>
